<?xml version="1.0" standalone="no"?>
<!DOCTYPE svg PUBLIC "-//W3C//DTD SVG 20010904//EN"
 "http://www.w3.org/TR/2001/REC-SVG-20010904/DTD/svg10.dtd">
<svg version="1.0" xmlns="http://www.w3.org/2000/svg"
 width="708.000000pt" height="236.000000pt" viewBox="0 0 708.000000 236.000000"
 preserveAspectRatio="xMidYMid meet">
<metadata>
Created by potrace 1.16, written by Peter Selinger 2001-2019
</metadata>
<g transform="translate(0.000000,236.000000) scale(0.100000,-0.100000)"
fill="#000000" stroke="none">
<path d="M3559 2025 c-231 -158 -232 -160 -239 -311 l-5 -114 -105 -63 c-58
-35 -105 -70 -105 -78 0 -11 21 -15 102 -17 l102 -3 5 -32 c11 -75 16 -686 5
-743 -17 -95 -63 -166 -162 -251 -25 -21 -35 -37 -31 -47 10 -25 25 -20 115
43 102 71 226 199 257 263 39 84 45 134 51 457 l6 314 100 62 c141 88 138 105
-22 105 l-83 0 0 143 0 142 26 -33 c54 -68 115 -78 209 -34 79 38 127 79 123
105 -3 19 -9 21 -55 18 -63 -3 -94 15 -129 76 -22 36 -50 63 -66 63 -2 0 -47
-29 -99 -65z"/>
<path d="M5699 2004 c-204 -142 -209 -149 -209 -302 l0 -99 -107 -65 c-60 -36
-108 -72 -108 -79 0 -11 25 -15 105 -19 l105 -5 8 -350 c6 -247 5 -369 -3
-416 -17 -98 -66 -176 -167 -261 -32 -27 -36 -58 -9 -58 15 0 143 87 208 142
56 46 134 147 158 203 29 66 33 115 39 439 l6 309 100 61 c142 87 138 106 -22
106 l-83 0 0 142 0 143 30 -36 c38 -47 78 -63 135 -56 41 6 45 4 67 -26 l23
-32 5 -470 c5 -486 6 -490 48 -528 49 -45 98 -33 263 65 110 65 133 108 40 75
-122 -43 -119 -57 -123 473 -3 429 -3 436 -26 485 -30 64 -98 135 -131 135
-13 0 -33 -7 -42 -16 -28 -25 -72 -2 -110 57 -27 42 -55 69 -72 69 -3 0 -60
-39 -128 -86z"/>
<path d="M300 1510 c-96 -66 -185 -131 -197 -145 -51 -58 -48 -144 8 -201 39
-40 49 -44 219 -90 185 -49 220 -69 220 -123 0 -19 -35 -54 -64 -65 -29 -10
-112 18 -191 65 -92 54 -133 60 -184 26 -65 -43 -111 -88 -111 -108 0 -18 69
-63 189 -124 73 -36 121 -30 241 30 210 106 332 206 345 285 14 83 -32 123
-186 164 -184 48 -257 76 -279 104 -26 32 -24 90 3 106 15 9 22 6 39 -17 72
-98 256 -87 377 23 49 45 42 60 -28 60 -68 0 -105 23 -143 91 -35 63 -55 57
-258 -81z"/>
<path d="M1101 1524 c-211 -142 -221 -151 -243 -200 -24 -56 -16 -104 25 -151
39 -44 65 -57 168 -83 159 -40 218 -61 249 -86 37 -32 38 -63 4 -95 -45 -42
-111 -26 -274 66 -70 39 -104 34 -180 -28 -96 -78 -93 -87 50 -165 108 -59
118 -63 166 -58 92 8 358 158 437 246 72 80 72 157 0 206 -17 11 -86 35 -151
53 -237 62 -282 86 -282 147 0 18 3 39 6 48 9 24 40 19 58 -9 9 -14 35 -34 58
-46 35 -18 54 -21 112 -17 80 5 135 29 196 85 57 50 53 63 -19 63 -68 0 -105
23 -143 91 -35 62 -57 56 -237 -67z"/>
<path d="M1865 1514 c-199 -135 -209 -144 -231 -199 -20 -55 -7 -109 38 -152
44 -41 59 -48 158 -73 160 -40 219 -61 250 -86 37 -32 38 -63 4 -95 -41 -39
-89 -31 -218 35 -65 33 -123 56 -141 56 -21 0 -50 -16 -95 -53 -94 -77 -92
-87 40 -162 97 -55 110 -59 165 -59 68 0 134 29 306 135 159 97 219 183 185
263 -20 48 -58 69 -196 105 -235 62 -280 86 -280 147 0 75 19 81 78 24 25 -23
56 -42 77 -46 93 -17 201 16 277 84 55 50 51 62 -23 62 -58 0 -63 2 -98 38
-20 21 -44 51 -54 65 -31 46 -58 36 -242 -89z"/>
<path d="M2647 1515 c-193 -129 -223 -155 -238 -205 -20 -67 19 -148 90 -184
15 -8 65 -24 112 -36 159 -40 218 -61 249 -86 37 -32 38 -63 4 -95 -41 -39
-89 -31 -218 35 -65 33 -124 56 -142 56 -22 0 -49 -15 -98 -56 -91 -75 -89
-83 44 -159 97 -55 110 -59 165 -59 51 0 73 7 150 46 120 61 263 156 302 201
65 74 62 164 -7 206 -18 10 -87 33 -153 51 -232 61 -277 85 -277 146 0 75 19
81 78 24 66 -62 171 -68 275 -16 62 32 123 88 113 105 -4 6 -33 11 -65 11 -56
0 -60 2 -92 39 -19 21 -42 51 -52 65 -31 44 -58 34 -240 -89z"/>
<path d="M4831 1524 c-211 -143 -221 -151 -243 -201 -25 -57 -18 -101 24 -149
40 -45 66 -58 169 -84 159 -40 218 -61 249 -86 37 -32 38 -63 4 -95 -45 -42
-111 -26 -274 66 -70 39 -104 34 -180 -28 -96 -78 -93 -87 50 -165 108 -59
118 -63 166 -58 91 8 358 158 437 246 51 57 64 104 42 156 -19 45 -57 66 -178
98 -274 72 -317 100 -294 189 9 34 33 35 59 2 77 -98 269 -82 378 30 18 18 29
38 26 44 -4 6 -31 11 -61 11 -62 0 -100 25 -137 91 -35 62 -57 56 -237 -67z"/>
<path d="M3840 1603 c-67 -45 -120 -96 -120 -116 0 -12 17 -38 38 -60 l37 -38
6 -287 c3 -168 10 -297 16 -312 22 -50 49 -65 123 -65 65 0 75 4 223 77 104
52 169 91 198 120 83 80 113 182 114 383 0 122 -2 133 -28 187 -35 71 -99 132
-130 122 -38 -11 -157 -107 -157 -125 0 -4 18 -29 40 -54 22 -25 43 -58 46
-72 10 -37 -3 -266 -19 -339 -15 -73 -36 -108 -80 -134 -41 -26 -69 -25 -93 1
-17 19 -19 43 -24 283 -5 261 -5 261 -33 318 -27 55 -95 128 -120 128 -7 0
-24 -8 -37 -17z"/>
<path d="M6805 1592 c-49 -23 -215 -123 -273 -166 -24 -17 -50 -43 -58 -59 -9
-16 -19 -87 -26 -171 -14 -185 -1 -368 31 -419 50 -82 158 -89 291 -19 44 23
83 42 86 42 11 0 -7 -113 -27 -164 -27 -71 -65 -121 -136 -177 -65 -52 -79
-79 -42 -79 33 0 212 122 282 193 74 74 122 163 137 252 16 96 13 629 -4 668
-36 86 -175 139 -261 99z m17 -169 c34 -30 39 -81 36 -316 -3 -249 -3 -247
-64 -247 -46 0 -97 39 -112 85 -21 63 -13 439 10 482 10 17 23 33 30 36 16 6
76 -18 100 -40z"/>
</g>
</svg>
